<?xml version="1.0" encoding="UTF-8"?>
<!-- Globo de chat con auricular. No es el logotipo de WhatsApp: es un glifo propio que
     evoca la app sin copiar su marca registrada. Sin width/height para que la CSS lo
     escale en las tres superficies; fill/stroke en currentColor para seguir el tema. -->
<svg viewBox="0 0 24 24" fill="none" stroke="currentColor" stroke-width="1.7"
     stroke-linecap="round" stroke-linejoin="round" xmlns="http://www.w3.org/2000/svg">
  <path d="M12 2.9a9.1 9.1 0 0 0-7.8 13.8L3 21l4.4-1.2A9.1 9.1 0 1 0 12 2.9Z"/>
  <path d="M9.1 8.3c.3-.5.7-.5 1-.5.3 0 .6.1.8.6l.6 1.3c.1.3.1.6-.1.9l-.4.5c-.1.2-.1.4 0 .6.5.9 1.3 1.7 2.2 2.2.2.1.4.1.6 0l.5-.4c.3-.2.6-.2.9-.1l1.3.6c.5.2.6.5.6.8 0 .3 0 .7-.5 1a2.4 2.4 0 0 1-2.4.2c-1.5-.5-2.8-1.4-3.9-2.5a9.2 9.2 0 0 1-2.5-3.9 2.4 2.4 0 0 1 .3-2.4Z"/>
</svg>
